HIERARCHY
ROOT joint_Root
{
	OFFSET 0.0 0.0 0.0
	CHANNELS 6 Xposition Yposition Zposition Zrotation Xrotation Yrotation 
	JOINT Hips
	{
		OFFSET -0.726466 93.3139 -2.00062
		CHANNELS 6 Xposition Yposition Zposition Zrotation Xrotation Yrotation 
		JOINT Spine
		{
			OFFSET 15.7357 0.0 0.0
			CHANNELS 6 Xposition Yposition Zposition Zrotation Xrotation Yrotation 
			JOINT Chest
			{
				OFFSET 8.98455 -0.406207 0.0
				CHANNELS 6 Xposition Yposition Zposition Zrotation Xrotation Yrotation 
				JOINT Neck
				{
					OFFSET 16.3773 0.0 0.0
					CHANNELS 6 Xposition Yposition Zposition Zrotation Xrotation Yrotation 
					JOINT Head
					{
						OFFSET 6.45672 0.0 0.0
						CHANNELS 6 Xposition Yposition Zposition Zrotation Xrotation Yrotation 
						End Site
						{
							OFFSET 0.0 0.0 0.0
						}
					}
				}
				JOINT Shoulder_L
				{
					OFFSET 12.9942 -0.242716 4.98039
					CHANNELS 6 Xposition Yposition Zposition Zrotation Xrotation Yrotation 
					JOINT UpperArm_L
					{
						OFFSET 5.34809 0.0 0.0
						CHANNELS 6 Xposition Yposition Zposition Zrotation Xrotation Yrotation 
						JOINT LowerArm_L
						{
							OFFSET 24.3286 1.87007e-05 0.0
							CHANNELS 6 Xposition Yposition Zposition Zrotation Xrotation Yrotation 
							JOINT Hand_L
							{
								OFFSET 22.2916 0.0 0.0
								CHANNELS 6 Xposition Yposition Zposition Zrotation Xrotation Yrotation 
								End Site
								{
									OFFSET 0.0 0.0 0.0
								}
							}
						}
					}
				}
				JOINT Shoulder_R
				{
					OFFSET 12.9945 -0.242716 -4.98039
					CHANNELS 6 Xposition Yposition Zposition Zrotation Xrotation Yrotation 
					JOINT UpperArm_R
					{
						OFFSET -5.34813 0.0 0.0
						CHANNELS 6 Xposition Yposition Zposition Zrotation Xrotation Yrotation 
						JOINT LowerArm_R
						{
							OFFSET -24.3289 0.000322201 0.0
							CHANNELS 6 Xposition Yposition Zposition Zrotation Xrotation Yrotation 
							JOINT Hand_R
							{
								OFFSET -22.2915 -0.000108084 0.0
								CHANNELS 6 Xposition Yposition Zposition Zrotation Xrotation Yrotation 
								End Site
								{
									OFFSET 0.0 0.0 0.0
								}
							}
						}
					}
				}
			}
		}
		JOINT UpperLeg_L
		{
			OFFSET -2.19248 -6.46944 0.0
			CHANNELS 6 Xposition Yposition Zposition Zrotation Xrotation Yrotation 
			JOINT LowerLeg_L
			{
				OFFSET 39.0811 0.0 -1.23785e-05
				CHANNELS 6 Xposition Yposition Zposition Zrotation Xrotation Yrotation 
				JOINT Foot_L
				{
					OFFSET 40.9854 0.0 -1.26872e-05
					CHANNELS 6 Xposition Yposition Zposition Zrotation Xrotation Yrotation 
					JOINT Toes_L
					{
						OFFSET 11.7543 0.0 0.0
						CHANNELS 6 Xposition Yposition Zposition Zrotation Xrotation Yrotation 
						End Site
						{
							OFFSET 0.0 0.0 0.0
						}
					}
				}
			}
		}
		JOINT UpperLeg_R
		{
			OFFSET -2.19251 6.46944 0.0
			CHANNELS 6 Xposition Yposition Zposition Zrotation Xrotation Yrotation 
			JOINT LowerLeg_R
			{
				OFFSET -39.0811 -0.00228153 -0.0401928
				CHANNELS 6 Xposition Yposition Zposition Zrotation Xrotation Yrotation 
				JOINT Foot_R
				{
					OFFSET -40.9854 0.0 0.0
					CHANNELS 6 Xposition Yposition Zposition Zrotation Xrotation Yrotation 
					JOINT Toes_R
					{
						OFFSET -11.7543 0.0 0.0
						CHANNELS 6 Xposition Yposition Zposition Zrotation Xrotation Yrotation 
						End Site
						{
							OFFSET 0.0 0.0 0.0
						}
					}
				}
			}
		}
	}
}
MOTION
Frames:	8
Frame Time:	0.0333333
0.000000 0.000000 0.000000 0.000000 0.000000 -0.000000 123.256000 88.776500 144.682000 -82.141400 14.753700 -175.597000 15.735700 0.000005 -0.000001 78.002700 82.808700 -74.888200 8.984550 -0.406207 -0.000000 6.399100 -3.017850 6.392070 16.377300 -0.000001 -0.000001 6.390760 1.430900 -0.987329 6.456720 -0.000001 -0.000000 5.494970 5.838100 -3.195650 12.994200 -0.242716 4.980390 -89.428700 -1.781890 -72.218500 5.348090 -0.000007 -0.000001 -74.236100 34.478400 -16.436300 24.328600 0.000019 0.000005 1.869860 6.048620 -17.213900 22.291600 -0.000001 0.000005 7.962560 5.423250 -3.708420 12.994500 -0.242716 -4.980390 87.964600 5.512130 -69.696600 -5.348130 -0.000001 -0.000004 -64.027900 23.947800 -14.568200 -24.328900 0.000322 -0.000009 1.406380 7.327610 -10.903600 -22.291500 -0.000108 -0.000004 12.128500 5.329960 -0.784237 -2.192480 -6.469440 -0.000000 -169.885000 2.256450 -3.409030 39.081100 -0.000007 -0.000012 0.081609 -0.040192 63.777100 40.985400 -0.000006 -0.000013 0.889388 2.012910 -36.221600 11.754300 -0.000000 0.000003 -0.006775 -0.077731 -19.741000 -2.192510 6.469440 -0.000001 -174.828000 13.445700 163.345000 -39.081100 -0.002282 -0.040193 -0.086674 0.119681 36.931000 -40.985400 0.000008 0.000006 1.240380 -0.212146 -63.947700 -11.754300 -0.000006 -0.000006 -0.012549 -0.121785 -21.538500
0.000000 0.000000 0.000000 0.000000 0.000000 -0.000000 124.624000 89.479100 141.891000 -83.347100 14.033600 -174.597000 15.735700 0.000005 -0.000001 83.910000 82.688800 -81.204500 8.984550 -0.406207 -0.000000 6.818750 -1.568460 5.498820 16.377300 -0.000001 -0.000001 6.211190 1.243400 -0.508655 6.456720 -0.000001 -0.000000 5.302870 4.636630 -2.340810 12.994200 -0.242716 4.980390 -89.312500 -2.092030 -71.802300 5.348090 -0.000007 -0.000001 -74.722800 33.778200 -14.490600 24.328600 0.000019 0.000005 2.581120 9.295590 -15.593300 22.291600 -0.000001 0.000005 5.810700 5.384320 -2.434390 12.994500 -0.242716 -4.980390 88.069800 5.457390 -70.487600 -5.348130 -0.000001 -0.000004 -62.285800 24.189700 -17.215300 -24.328900 0.000322 -0.000009 1.514620 7.066480 -12.138300 -22.291500 -0.000108 -0.000004 12.983200 5.343010 -1.168540 -2.192480 -6.469440 -0.000000 -171.762000 0.126643 -7.610880 39.081100 -0.000007 -0.000012 0.041360 -0.015787 69.100600 40.985400 -0.000006 -0.000013 5.946710 -3.461480 -42.258100 11.754300 -0.000000 0.000003 -0.007657 -0.085219 -20.046600 -2.192510 6.469440 -0.000001 -176.213000 14.132400 167.324000 -39.081100 -0.002282 -0.040193 -0.068299 0.101361 35.232800 -40.985400 0.000008 0.000006 1.792430 -0.358007 -65.568200 -11.754300 -0.000006 -0.000006 -0.011659 -0.115645 -21.287000
0.000000 0.000000 0.000000 0.000000 0.000000 -0.000000 125.672000 90.143500 139.259000 -84.785400 14.262300 -174.248000 15.735700 0.000005 -0.000001 90.042800 82.662600 -87.903300 8.984550 -0.406207 -0.000000 6.912370 -0.004936 4.274640 16.377300 -0.000001 -0.000001 6.184340 1.702580 -0.293127 6.456720 -0.000001 -0.000000 5.197400 3.607290 -1.837110 12.994200 -0.242716 4.980390 -89.153500 -2.417630 -70.696300 5.348090 -0.000007 -0.000001 -74.545100 32.656300 -12.474400 24.328600 0.000019 0.000005 3.037920 10.946400 -15.614600 22.291600 -0.000001 0.000005 4.635690 5.368940 -1.953650 12.994500 -0.242716 -4.980390 88.264600 5.237040 -71.636900 -5.348130 -0.000001 -0.000004 -60.483200 24.894800 -20.513400 -24.328900 0.000322 -0.000009 1.630340 7.192480 -12.815400 -22.291500 -0.000108 -0.000004 13.921500 5.349290 -1.355970 -2.192480 -6.469440 -0.000000 -174.177000 -2.806700 -11.864200 39.081100 -0.000007 -0.000012 0.018482 -0.006389 70.912200 40.985400 -0.000006 -0.000013 8.281750 -6.328750 -44.988000 11.754300 -0.000000 0.000003 -0.006315 -0.073682 -19.575800 -2.192510 6.469440 -0.000001 -177.886000 15.024600 170.604000 -39.081100 -0.002282 -0.040193 -0.039143 0.065108 33.097200 -40.985400 0.000008 0.000006 2.488470 0.627597 -66.670700 -11.754300 -0.000006 -0.000006 -0.010956 -0.110648 -21.082500
0.000000 0.000000 0.000000 0.000000 0.000000 -0.000000 126.657000 90.700400 136.708000 -85.803200 14.434700 -173.988000 15.735700 0.000005 -0.000001 95.010400 82.513400 -93.221500 8.984550 -0.406207 -0.000000 7.133640 1.293230 3.493280 16.377300 -0.000001 -0.000001 6.163200 2.077540 -0.379006 6.456720 -0.000001 -0.000000 5.114810 2.889790 -1.988680 12.994200 -0.242716 4.980390 -89.087300 -2.467630 -69.693600 5.348090 -0.000007 -0.000001 -74.276200 30.586200 -10.034800 24.328600 0.000019 0.000005 2.835820 9.592200 -16.555300 22.291600 -0.000001 0.000005 5.040560 5.388200 -2.557760 12.994500 -0.242716 -4.980390 88.548500 4.666690 -72.701500 -5.348130 -0.000001 -0.000004 -58.559300 25.159100 -24.268700 -24.328900 0.000322 -0.000009 1.709290 7.123760 -13.538000 -22.291500 -0.000108 -0.000004 13.924700 5.348600 -1.335280 -2.192480 -6.469440 -0.000000 -176.170000 -5.103150 -15.507200 39.081100 -0.000007 -0.000012 0.013779 -0.005015 69.977000 40.985400 -0.000006 -0.000013 7.779000 -5.764560 -47.420900 11.754300 -0.000000 0.000003 -0.006465 -0.075015 -19.630200 -2.192510 6.469440 -0.000001 -179.392000 16.556700 174.051000 -39.081100 -0.002282 -0.040193 -0.007750 0.018689 30.595000 -40.985400 0.000008 0.000006 3.272850 2.285970 -67.569300 -11.754300 -0.000006 -0.000006 -0.010058 -0.104068 -20.813200
0.000000 0.000000 0.000000 0.000000 0.000000 -0.000000 127.689000 91.085200 134.223000 -86.624500 14.328100 -173.819000 15.735700 0.000005 -0.000001 98.416300 82.415100 -96.930800 8.984550 -0.406207 -0.000000 7.217450 2.205190 2.828890 16.377300 -0.000001 -0.000001 6.159810 2.361140 -0.432635 6.456720 -0.000001 -0.000000 5.043740 2.340900 -2.454070 12.994200 -0.242716 4.980390 -89.090700 -2.339220 -68.751400 5.348090 -0.000007 -0.000001 -73.649700 28.187400 -7.265720 24.328600 0.000019 0.000005 2.302850 7.061840 -18.113000 22.291600 -0.000001 0.000005 6.274720 5.412850 -3.359660 12.994500 -0.242716 -4.980390 88.694700 4.367470 -73.342000 -5.348130 -0.000001 -0.000004 -56.323400 25.268000 -27.913700 -24.328900 0.000322 -0.000009 1.788360 6.883660 -14.609800 -22.291500 -0.000108 -0.000004 13.308000 5.348420 -1.329810 -2.192480 -6.469440 -0.000000 -177.803000 -6.933660 -18.318000 39.081100 -0.000007 -0.000012 0.008573 -0.003761 66.279500 40.985400 -0.000006 -0.000013 7.369180 -2.934880 -50.816700 11.754300 -0.000000 0.000003 -0.007087 -0.080414 -19.850500 -2.192510 6.469440 -0.000001 179.363000 17.370600 177.380000 -39.081100 -0.002282 -0.040193 -0.002387 0.010644 28.138700 -40.985400 0.000008 0.000006 3.399250 3.082700 -68.407500 -11.754300 -0.000006 -0.000006 -0.009271 -0.098104 -20.569400
0.000000 0.000000 0.000000 0.000000 0.000000 -0.000000 128.632000 91.268700 131.841000 -87.330200 13.966200 -174.055000 15.735700 0.000005 -0.000001 100.764000 82.395000 -99.533100 8.984550 -0.406207 -0.000000 7.153680 2.823850 2.281900 16.377300 -0.000001 -0.000001 5.917980 2.520690 -0.627642 6.456720 -0.000001 -0.000000 4.803090 1.982360 -2.754280 12.994200 -0.242716 4.980390 -89.167300 -2.062810 -68.011600 5.348090 -0.000007 -0.000001 -72.824600 25.740000 -4.812460 24.328600 0.000019 0.000005 1.470970 4.142470 -19.569400 22.291600 -0.000001 0.000005 7.740760 5.439350 -4.262130 12.994500 -0.242716 -4.980390 88.705100 4.425410 -73.671900 -5.348130 -0.000001 -0.000004 -53.550600 25.129500 -31.499400 -24.328900 0.000322 -0.000009 1.739130 5.965720 -16.294600 -22.291500 -0.000108 -0.000004 12.814400 5.355530 -1.544020 -2.192480 -6.469440 -0.000000 -179.421000 -8.336960 -20.598700 39.081100 -0.000007 -0.000012 -0.001051 0.000620 59.676200 40.985400 -0.000006 -0.000013 6.889300 -1.573000 -53.322500 11.754300 -0.000000 0.000003 -0.005283 -0.064183 -19.188400 -2.192510 6.469440 -0.000001 178.174000 18.674700 -179.980000 -39.081100 -0.002282 -0.040193 -0.010948 0.029045 26.145600 -40.985400 0.000008 0.000006 3.489820 4.007530 -69.362000 -11.754300 -0.000006 -0.000006 -0.008786 -0.094329 -20.415100
0.000000 0.000000 0.000000 0.000000 0.000000 -0.000000 129.464000 91.327600 129.534000 -87.859800 13.582300 -174.589000 15.735700 0.000005 -0.000001 102.587000 82.403900 -101.546000 8.984550 -0.406207 -0.000000 7.040740 3.292610 1.876970 16.377300 -0.000001 -0.000001 5.535680 2.609180 -0.830502 6.456720 -0.000001 -0.000000 4.518030 1.683880 -3.099510 12.994200 -0.242716 4.980390 -89.268300 -1.766630 -67.497800 5.348090 -0.000007 -0.000001 -72.102900 23.467000 -3.074790 24.328600 0.000019 0.000005 1.075180 2.957480 -19.988100 22.291600 -0.000001 0.000005 9.321160 5.461750 -5.064940 12.994500 -0.242716 -4.980390 88.687500 4.599620 -74.054800 -5.348130 -0.000001 -0.000004 -51.128500 24.318100 -34.596900 -24.328900 0.000322 -0.000009 1.795300 5.420730 -18.365800 -22.291500 -0.000108 -0.000004 13.017200 5.360760 -1.702910 -2.192480 -6.469440 -0.000000 179.051000 -9.575370 -21.830600 39.081100 -0.000007 -0.000012 -0.009226 0.007826 49.706000 40.985400 -0.000006 -0.000013 7.216040 -2.077780 -54.711300 11.754300 -0.000000 0.000003 -0.006507 -0.075386 -19.645300 -2.192510 6.469440 -0.000001 177.452000 19.329900 -177.838000 -39.081100 -0.002282 -0.040193 0.020747 -0.038510 24.357100 -40.985400 0.000008 0.000006 4.145720 4.098390 -70.372100 -11.754300 -0.000006 -0.000006 -0.007702 -0.085581 -20.057700
0.000000 0.000000 0.000000 0.000000 0.000000 -0.000000 130.294000 91.201400 127.194000 -88.099200 13.179300 -175.251000 15.735700 0.000005 -0.000001 104.100000 82.461700 -103.147000 8.984550 -0.406207 -0.000000 6.837190 3.653020 1.687120 16.377300 -0.000001 -0.000001 5.206080 2.599470 -0.956322 6.456720 -0.000001 -0.000000 4.229310 1.486840 -3.535880 12.994200 -0.242716 4.980390 -89.264200 -1.758030 -67.285200 5.348090 -0.000007 -0.000001 -71.992900 21.287400 -1.737230 24.328600 0.000019 0.000005 1.028730 2.931240 -19.347800 22.291600 -0.000001 0.000005 10.333700 5.459590 -4.986160 12.994500 -0.242716 -4.980390 88.692100 4.656380 -74.292300 -5.348130 -0.000001 -0.000004 -49.595700 23.238700 -36.979900 -24.328900 0.000322 -0.000009 1.925290 5.136350 -20.590600 -22.291500 -0.000108 -0.000004 13.648800 5.368680 -1.945650 -2.192480 -6.469440 -0.000000 177.985000 -10.622900 -21.522400 39.081100 -0.000007 -0.000012 -0.011886 0.016130 36.389300 40.985400 -0.000006 -0.000013 6.754200 -2.621820 -54.144800 11.754300 -0.000000 0.000003 -0.005584 -0.067018 -19.304000 -2.192510 6.469440 -0.000001 177.014000 19.787600 -175.947000 -39.081100 -0.002282 -0.040193 0.029864 -0.062681 22.955100 -40.985400 0.000008 0.000006 4.227980 4.038410 -71.418400 -11.754300 -0.000006 -0.000006 -0.006881 -0.078635 -19.774200
